<svg xmlns="http://www.w3.org/2000/svg" viewBox="0 0 620 760" width="620" height="760"
    role="img" aria-label="ÉVÉNEMENT" preserveAspectRatio="xMidYMid slice">
<defs><linearGradient id="ciel-real-event" gradientUnits="userSpaceOnUse" x1="0" y1="0" x2="0" y2="380">
    <stop offset="0" stop-color="#190840"/>
    <stop offset=".34" stop-color="#190840"/>
    <stop offset=".62" stop-color="#9A2EBE"/>
    <stop offset=".90" stop-color="#F58FE2"/>
    <stop offset="1" stop-color="#F58FE2"/>
  </linearGradient>
  <linearGradient id="brume-real-event" gradientUnits="userSpaceOnUse" x1="0" y1="213" x2="0" y2="380">
    <stop offset="0" stop-color="#FFE6F9" stop-opacity="0"/>
    <stop offset=".72" stop-color="#FFE6F9" stop-opacity=".18"/>
    <stop offset="1" stop-color="#FFE6F9" stop-opacity=".32"/>
  </linearGradient>
  <linearGradient id="eau-real-event" gradientUnits="userSpaceOnUse" x1="0" y1="380" x2="0" y2="623">
    <stop offset="0" stop-color="#6B2387"/>
    <stop offset=".45" stop-color="#170D3B"/>
    <stop offset="1" stop-color="#05070F"/>
  </linearGradient>
  <radialGradient id="halo-real-event" cx="50%" cy="50%" r="50%">
    <stop offset="0" stop-color="#FFE6F9" stop-opacity=".85"/>
    <stop offset=".40" stop-color="#F58FE2" stop-opacity=".38"/>
    <stop offset="1" stop-color="#F58FE2" stop-opacity="0"/>
  </radialGradient>
  <linearGradient id="disque-real-event" gradientUnits="userSpaceOnUse" x1="0" y1="122" x2="0" y2="380">
    <stop offset="0" stop-color="#FFE6F9"/>
    <stop offset=".55" stop-color="#FFE6F9"/>
    <stop offset="1" stop-color="#F58FE2"/>
  </linearGradient>
  <linearGradient id="bas-real-event" gradientUnits="userSpaceOnUse" x1="0" y1="418" x2="0" y2="760">
    <stop offset="0" stop-color="#05070F" stop-opacity="0"/>
    <stop offset=".70" stop-color="#05070F" stop-opacity=".30"/>
    <stop offset="1" stop-color="#05070F" stop-opacity=".62"/>
  </linearGradient>
  <linearGradient id="voile-real-event" gradientUnits="userSpaceOnUse" x1="0" y1="502" x2="0" y2="760">
    <stop offset="0" stop-color="#05070F" stop-opacity="0"/>
    <stop offset=".55" stop-color="#05070F" stop-opacity=".42"/>
    <stop offset="1" stop-color="#05070F" stop-opacity=".80"/>
  </linearGradient>
  <radialGradient id="vignette-real-event" cx="50%" cy="46%" r="72%">
    <stop offset=".55" stop-color="#05070F" stop-opacity="0"/>
    <stop offset="1" stop-color="#05070F" stop-opacity=".62"/>
  </radialGradient>
  <clipPath id="coupeEau-real-event"><rect x="0" y="380" width="620" height="243"/></clipPath>
  <filter id="flou-real-event" x="-30%" y="-30%" width="160%" height="160%">
    <feGaussianBlur stdDeviation="9.1"/>
  </filter>
  <filter id="flouEau-real-event" x="-10%" y="-10%" width="120%" height="120%">
    <feGaussianBlur stdDeviation="8.4"/>
  </filter></defs>
<rect width="620" height="382" fill="url(#ciel-real-event)"/>
<ellipse cx="248" cy="315" rx="236" ry="167" fill="url(#halo-real-event)"/>
  <circle cx="248" cy="315" r="76" fill="url(#disque-real-event)"/><rect x="171" y="307.3" width="154" height="0.9" fill="url(#ciel-real-event)"/><rect x="171" y="322.2" width="154" height="1" fill="url(#ciel-real-event)"/><rect x="173" y="334.1" width="150" height="1.2" fill="url(#ciel-real-event)"/><rect x="177" y="345" width="142" height="1.5" fill="url(#ciel-real-event)"/><rect x="183" y="355.3" width="131" height="1.9" fill="url(#ciel-real-event)"/><rect x="191" y="365.2" width="115" height="2.5" fill="url(#ciel-real-event)"/><rect x="202" y="374.7" width="93" height="3.1" fill="url(#ciel-real-event)"/>
<ellipse cx="542" cy="259" rx="359" ry="7" fill="#FFE6F9" opacity="0.19699999999999998"/><ellipse cx="542" cy="263" rx="294" ry="1.8" fill="#FFE6F9" opacity="0.13699999999999998"/><ellipse cx="255" cy="280" rx="338" ry="9" fill="#FFE6F9" opacity="0.215"/><ellipse cx="24" cy="73" rx="179" ry="6" fill="#9A2EBE" opacity="0.154"/><ellipse cx="-15" cy="92" rx="111" ry="14" fill="#9A2EBE" opacity="0.102"/><ellipse cx="583" cy="281" rx="219" ry="13" fill="#FFE6F9" opacity="0.24600000000000002"/><ellipse cx="583" cy="291" rx="179" ry="3.8" fill="#FFE6F9" opacity="0.157"/><ellipse cx="552" cy="62" rx="123" ry="10" fill="#9A2EBE" opacity="0.198"/><ellipse cx="-11" cy="270" rx="272" ry="13" fill="#FFE6F9" opacity="0.221"/><ellipse cx="-11" cy="279" rx="223" ry="3.7" fill="#FFE6F9" opacity="0.18100000000000002"/><ellipse cx="483" cy="83" rx="305" ry="13" fill="#9A2EBE" opacity="0.142"/><ellipse cx="151" cy="313" rx="198" ry="16" fill="#FFE6F9" opacity="0.17800000000000002"/><ellipse cx="151" cy="324" rx="163" ry="4.3" fill="#FFE6F9" opacity="0.107"/><ellipse cx="248" cy="219" rx="152" ry="5" fill="#9A2EBE" opacity="0.187"/><ellipse cx="294" cy="92" rx="301" ry="7" fill="#9A2EBE" opacity="0.13699999999999998"/><ellipse cx="294" cy="122" rx="165" ry="5" fill="#9A2EBE" opacity="0.18100000000000002"/><ellipse cx="453" cy="91" rx="281" ry="13" fill="#9A2EBE" opacity="0.156"/><ellipse cx="218" cy="99" rx="167" ry="12" fill="#9A2EBE" opacity="0.12"/><ellipse cx="624" cy="149" rx="187" ry="10" fill="#9A2EBE" opacity="0.17"/><ellipse cx="393" cy="81" rx="208" ry="16" fill="#9A2EBE" opacity="0.15"/><ellipse cx="483" cy="66" rx="349" ry="6" fill="#9A2EBE" opacity="0.095"/><ellipse cx="8" cy="150" rx="145" ry="16" fill="#9A2EBE" opacity="0.221"/>
<rect x="0" y="213" width="620" height="167" fill="url(#brume-real-event)"/>
<g id="ville-real-event"><path d="M-25 386V170H15V386ZM35 386V310H129V386ZM152 386V304A20 16 0 0 1 192 304V386ZM221 386V307H300V386ZM329 386V273H340V249H350V228H374V249H385V273H396V386ZM422 386V288H479V386ZM494 386V239H598V386ZM616 386V239H744V386ZM-6 170h2v-52h-2Z" fill="#190840" opacity="0.62"/><path d="M-25 386V254H-2V225H21V199H73V225H97V254H120V386ZM139 386V274H277V386ZM288 386V257H428V386ZM467 386V213H489V175H512V142H563V175H585V213H608V386ZM626 386V313H648V297H669V284H718V297H739V313H761V386Z" fill="#07091A" opacity="0.92"/><path d="M-10 234h5v7.3h-5ZM-10 251h5v7.3h-5ZM-10 302h5v7.3h-5ZM2 251h5v7.3h-5ZM2 302h5v7.3h-5ZM15 234h5v7.3h-5ZM15 302h5v7.3h-5ZM28 251h5v7.3h-5ZM41 217h5v7.3h-5ZM41 251h5v7.3h-5ZM41 352h5v7.3h-5ZM54 268h5v7.3h-5ZM54 335h5v7.3h-5ZM54 352h5v7.3h-5ZM67 268h5v7.3h-5ZM67 285h5v7.3h-5ZM67 302h5v7.3h-5ZM67 352h5v7.3h-5ZM80 217h5v7.3h-5ZM80 268h5v7.3h-5ZM80 302h5v7.3h-5ZM92 251h5v7.3h-5ZM92 319h5v7.3h-5ZM153 284h5v7.3h-5ZM153 338h5v7.3h-5ZM153 356h5v7.3h-5ZM177 356h5v7.3h-5ZM189 284h5v7.3h-5ZM189 356h5v7.3h-5ZM214 284h5v7.3h-5ZM214 338h5v7.3h-5ZM226 302h5v7.3h-5ZM238 302h5v7.3h-5ZM302 286h5v7.3h-5ZM302 303h5v7.3h-5ZM315 286h5v7.3h-5ZM315 338h5v7.3h-5ZM327 286h5v7.3h-5ZM327 355h5v7.3h-5ZM339 269h5v7.3h-5ZM339 286h5v7.3h-5ZM339 338h5v7.3h-5ZM352 303h5v7.3h-5ZM352 321h5v7.3h-5ZM352 338h5v7.3h-5ZM364 286h5v7.3h-5ZM364 338h5v7.3h-5ZM377 269h5v7.3h-5ZM377 321h5v7.3h-5ZM389 286h5v7.3h-5ZM389 303h5v7.3h-5ZM389 321h5v7.3h-5ZM389 355h5v7.3h-5ZM401 269h5v7.3h-5ZM401 338h5v7.3h-5ZM401 355h5v7.3h-5ZM481 216h5v7.3h-5ZM481 249h5v7.3h-5ZM481 266h5v7.3h-5ZM481 316h5v7.3h-5ZM493 182h5v7.3h-5ZM493 199h5v7.3h-5ZM493 216h5v7.3h-5ZM493 249h5v7.3h-5ZM506 166h5v7.3h-5ZM506 182h5v7.3h-5ZM506 249h5v7.3h-5ZM518 166h5v7.3h-5ZM518 199h5v7.3h-5ZM518 266h5v7.3h-5ZM531 166h5v7.3h-5ZM531 182h5v7.3h-5ZM531 232h5v7.3h-5ZM531 316h5v7.3h-5ZM544 282h5v7.3h-5ZM544 349h5v7.3h-5ZM556 166h5v7.3h-5ZM556 199h5v7.3h-5ZM556 232h5v7.3h-5ZM556 249h5v7.3h-5ZM556 332h5v7.3h-5ZM556 349h5v7.3h-5ZM569 166h5v7.3h-5ZM569 199h5v7.3h-5ZM569 282h5v7.3h-5ZM581 182h5v7.3h-5ZM581 216h5v7.3h-5ZM581 232h5v7.3h-5ZM581 299h5v7.3h-5ZM581 316h5v7.3h-5ZM581 332h5v7.3h-5ZM640 310h5v7.3h-5ZM640 326h5v7.3h-5ZM640 342h5v7.3h-5ZM653 293h5v7.3h-5ZM653 342h5v7.3h-5ZM667 342h5v7.3h-5ZM667 358h5v7.3h-5ZM694 326h5v7.3h-5ZM694 342h5v7.3h-5ZM707 342h5v7.3h-5ZM707 358h5v7.3h-5ZM721 293h5v7.3h-5ZM734 358h5v7.3h-5Z" fill="#FFE6F9" opacity=".62"/><path d="M-10 268h5v7.3h-5ZM-10 285h5v7.3h-5ZM2 217h5v7.3h-5ZM2 234h5v7.3h-5ZM15 268h5v7.3h-5ZM15 335h5v7.3h-5ZM15 352h5v7.3h-5ZM28 234h5v7.3h-5ZM28 319h5v7.3h-5ZM28 352h5v7.3h-5ZM54 217h5v7.3h-5ZM54 302h5v7.3h-5ZM80 352h5v7.3h-5ZM92 217h5v7.3h-5ZM165 320h5v7.3h-5ZM165 338h5v7.3h-5ZM189 302h5v7.3h-5ZM226 338h5v7.3h-5ZM226 356h5v7.3h-5ZM302 338h5v7.3h-5ZM352 269h5v7.3h-5ZM364 269h5v7.3h-5ZM481 332h5v7.3h-5ZM506 216h5v7.3h-5ZM506 232h5v7.3h-5ZM506 349h5v7.3h-5ZM518 232h5v7.3h-5ZM518 249h5v7.3h-5ZM531 216h5v7.3h-5ZM531 282h5v7.3h-5ZM544 299h5v7.3h-5ZM556 266h5v7.3h-5ZM569 182h5v7.3h-5ZM569 249h5v7.3h-5ZM569 299h5v7.3h-5ZM569 316h5v7.3h-5ZM581 166h5v7.3h-5ZM581 199h5v7.3h-5ZM581 282h5v7.3h-5ZM640 293h5v7.3h-5ZM667 310h5v7.3h-5ZM667 326h5v7.3h-5ZM680 293h5v7.3h-5ZM694 310h5v7.3h-5ZM707 293h5v7.3h-5ZM707 326h5v7.3h-5ZM721 326h5v7.3h-5ZM734 293h5v7.3h-5ZM734 310h5v7.3h-5Z" fill="#57E9FF" opacity=".50"/><path d="M288 257v123" stroke="#57E9FF" stroke-width="1.6" opacity=".22" fill="none"/></g>
<g id="neons-real-event"><g filter="url(#flou-real-event)"><g opacity=".95"><rect x="285" y="148" width="260" height="52" fill="none"
      stroke="#E27BFF" stroke-width="2.6" rx="5.2"/><text x="415" dx="1.9" y="184" text-anchor="middle" font-family="Archivo, Helvetica Neue, Arial, sans-serif"
           font-size="27" font-weight="700" letter-spacing="3.8" fill="#E27BFF">LIVE</text>
      <rect x="279" y="142" width="273" height="64"
        fill="#E27BFF" opacity=".22" rx="7.2"/></g></g><g><rect x="285" y="148" width="260" height="52" fill="none"
      stroke="#E27BFF" stroke-width="2.6" rx="5.2"/><g opacity=".92"><text x="415" dx="1.9" y="184" text-anchor="middle" font-family="Archivo, Helvetica Neue, Arial, sans-serif"
           font-size="27" font-weight="700" letter-spacing="3.8" fill="#E27BFF">LIVE</text></g>
      <rect x="289" y="152" width="253" height="44"
        fill="none" stroke="#E27BFF" stroke-width="1" opacity=".42" rx="4.1"/></g></g><rect x="0" y="380" width="620" height="243" fill="url(#eau-real-event)"/><g clip-path="url(#coupeEau-real-event)"><rect x="247" y="380" width="13" height="1.9"
      fill="#FFE6F9" opacity="0.42" rx="1"/><rect x="250" y="399.1" width="18" height="2.1"
      fill="#FFE6F9" opacity="0.408" rx="1"/><rect x="236" y="412.9" width="31" height="2.2"
      fill="#FFE6F9" opacity="0.397" rx="1.1"/><rect x="246" y="425.1" width="18" height="2.3"
      fill="#FFE6F9" opacity="0.385" rx="1.1"/><rect x="225" y="436.4" width="11" height="2.4"
      fill="#FFE6F9" opacity="0.373" rx="1.2"/><rect x="230" y="447.2" width="21" height="2.5"
      fill="#FFE6F9" opacity="0.36200000000000004" rx="1.3"/><rect x="225" y="457.4" width="31" height="2.6"
      fill="#FFE6F9" opacity="0.35" rx="1.3"/><rect x="243" y="467.3" width="13" height="2.7"
      fill="#FFE6F9" opacity="0.33899999999999997" rx="1.4"/><rect x="256" y="476.9" width="25" height="2.8"
      fill="#FFE6F9" opacity="0.327" rx="1.4"/><rect x="238" y="486.2" width="27" height="3"
      fill="#FFE6F9" opacity="0.315" rx="1.5"/><rect x="244" y="495.3" width="50" height="3.1"
      fill="#FFE6F9" opacity="0.304" rx="1.5"/><rect x="234" y="504.2" width="45" height="3.2"
      fill="#FFE6F9" opacity="0.292" rx="1.6"/><rect x="244" y="513" width="36" height="3.3"
      fill="#FFE6F9" opacity="0.28" rx="1.6"/><rect x="234" y="521.5" width="51" height="3.4"
      fill="#FFE6F9" opacity="0.26899999999999996" rx="1.7"/><rect x="232" y="529.9" width="20" height="3.5"
      fill="#FFE6F9" opacity="0.257" rx="1.8"/><rect x="201" y="538.2" width="45" height="3.6"
      fill="#FFE6F9" opacity="0.24600000000000002" rx="1.8"/><rect x="264" y="546.4" width="35" height="3.7"
      fill="#FFE6F9" opacity="0.23399999999999999" rx="1.9"/><rect x="247" y="554.5" width="53" height="3.9"
      fill="#FFE6F9" opacity="0.222" rx="1.9"/><rect x="219" y="562.4" width="73" height="4"
      fill="#FFE6F9" opacity="0.21100000000000002" rx="2"/><rect x="213" y="570.3" width="37" height="4.1"
      fill="#FFE6F9" opacity="0.19899999999999998" rx="2"/><rect x="205" y="578" width="69" height="4.2"
      fill="#FFE6F9" opacity="0.187" rx="2.1"/><rect x="170" y="585.7" width="87" height="4.3"
      fill="#FFE6F9" opacity="0.17600000000000002" rx="2.1"/><rect x="245" y="593.3" width="26" height="4.4"
      fill="#FFE6F9" opacity="0.16399999999999998" rx="2.2"/><rect x="200" y="600.8" width="83" height="4.5"
      fill="#FFE6F9" opacity="0.152" rx="2.3"/><rect x="196" y="608.3" width="35" height="4.6"
      fill="#FFE6F9" opacity="0.141" rx="2.3"/><rect x="207" y="615.7" width="56" height="4.7"
      fill="#FFE6F9" opacity="0.129" rx="2.4"/></g><path d="M198 383.6h282M194 410h397M24 427.1h344M181 441.1h371M109 451.3h134M51 467.4h479M34 476.3h474M94 490.3h451M1 500.8h320M108 509.9h176M9 519.1h393M97 531h554M101 537.6h344M10 549.1h253M122 556.6h308M73 566.6h516M21 574.6h328M115 582.9h515M128 591.3h312M23 600.9h195M157 607.5h482M60 618.8h427" stroke="#FFE6F9" stroke-width="1.2" opacity=".14" fill="none"/><g clip-path="url(#coupeEau-real-event)" opacity=".55" filter="url(#flouEau-real-event)">
    <g transform="translate(0 380) scale(1 -0.62) translate(0 -380)">
      <use href="#ville-real-event"/><use href="#neons-real-event"/>
    </g></g><rect x="0" y="380" width="620" height="1.5" fill="#FFE6F9" opacity=".30"/><rect width="620" height="760" fill="url(#bas-real-event)"/><defs><linearGradient id="quai-real-event" gradientUnits="userSpaceOnUse" x1="0" y1="681" x2="0" y2="760">
      <stop offset="0" stop-color="#170D3B"/>
      <stop offset=".35" stop-color="#0A0D1E"/>
      <stop offset="1" stop-color="#05070F"/>
    </linearGradient>
    <linearGradient id="nappe-real-event" gradientUnits="userSpaceOnUse" x1="0" y1="681" x2="0" y2="760">
      <stop offset="0" stop-color="#57E9FF" stop-opacity=".30"/>
      <stop offset=".55" stop-color="#E27BFF" stop-opacity=".11"/>
      <stop offset="1" stop-color="#E27BFF" stop-opacity="0"/>
    </linearGradient>
    <radialGradient id="flaque1-real-event"><stop offset="0" stop-color="#E27BFF" stop-opacity=".34"/><stop offset="1" stop-color="#E27BFF" stop-opacity="0"/></radialGradient>
    <radialGradient id="flaque2-real-event"><stop offset="0" stop-color="#57E9FF" stop-opacity=".30"/><stop offset="1" stop-color="#57E9FF" stop-opacity="0"/></radialGradient>
    <radialGradient id="flaque3-real-event"><stop offset="0" stop-color="#FFE6F9" stop-opacity=".20"/><stop offset="1" stop-color="#FFE6F9" stop-opacity="0"/></radialGradient></defs>
    <rect x="0" y="681" width="620" height="81" fill="url(#quai-real-event)"/>
    <rect x="0" y="681" width="620" height="81" fill="url(#nappe-real-event)"/><path d="M0 682H620M0 685H620M0 689H620M0 695H620M0 701H620M0 709H620M0 717H620M0 727H620M0 737H620M0 748H620" stroke="#FFE6F9" stroke-width="1" opacity=".07" fill="none"/><ellipse cx="235" cy="737" rx="161" ry="27" fill="url(#flaque1-real-event)"/><ellipse cx="217" cy="714" rx="114" ry="30" fill="url(#flaque2-real-event)"/><ellipse cx="343" cy="728" rx="164" ry="43" fill="url(#flaque3-real-event)"/><path d="M20 631h4.9v49h-4.9ZM64 631h4.9v49h-4.9ZM108 631h4.9v49h-4.9ZM153 631h4.9v49h-4.9ZM197 631h4.9v49h-4.9ZM241 631h4.9v49h-4.9ZM285 631h4.9v49h-4.9ZM330 631h4.9v49h-4.9ZM374 631h4.9v49h-4.9ZM418 631h4.9v49h-4.9ZM463 631h4.9v49h-4.9ZM507 631h4.9v49h-4.9ZM551 631h4.9v49h-4.9ZM595 631h4.9v49h-4.9Z" fill="#05070F" opacity=".94"/>
    <rect x="0" y="631" width="620" height="7.5" fill="#05070F" rx="2.7"/>
    <rect x="0" y="631" width="620" height="1.5" fill="#57E9FF" opacity=".45"/>
    <rect x="0" y="675" width="620" height="6.2" fill="#05070F"/><path d="M154 766Q170 641 187 538L194 538Q183 641 177 766Z" fill="#070A18" opacity="0.9"/><path d="M159 744h16.9M162 721h15.8M164 699h14.7M167 678h13.6M170 657h12.4M173 636h11.3M176 616h10.2M178 596h9.1M181 576h8M184 557h6.8" stroke="#05070F" stroke-width="1.9" opacity="0.45" fill="none"/><path d="M195 539Q195 541 197 543M195 539Q196 537 199 539M199 540Q199 544 202 547M199 540Q202 538 205 541M203 542Q203 548 208 552M203 542Q208 539 212 544M207 544Q207 551 212 556M207 544Q213 541 218 547M211 547Q210 553 216 559M211 547Q217 544 222 550M215 550Q214 557 219 563M215 550Q222 547 227 554M219 553Q217 560 223 568M219 553Q227 550 232 558M223 556Q221 562 226 569M223 556Q229 554 233 562M227 560Q225 566 229 573M227 560Q233 558 237 566M231 564Q228 571 233 578M231 564Q238 563 241 571M234 569Q231 576 236 585M234 569Q242 567 246 577M238 574Q235 580 239 587M238 574Q245 573 248 581M242 579Q238 585 242 592M242 579Q248 578 251 587M245 584Q242 589 245 595M245 584Q251 584 253 591M249 590Q246 594 249 599M249 590Q253 590 255 596M252 597Q251 599 252 602M252 597Q255 597 256 600M195 537Q196 540 199 541M195 537Q196 535 199 536M200 537Q201 541 206 543M200 537Q202 533 206 536M204 538Q206 542 211 545M204 538Q207 534 212 537M209 538Q210 544 215 547M209 538Q213 534 218 538M214 540Q215 547 222 552M214 540Q219 534 226 540M218 541Q218 549 226 555M218 541Q224 536 231 543M223 543Q222 552 230 559M223 543Q230 538 237 546M227 545Q226 553 233 560M227 545Q234 541 240 549M231 548Q230 556 236 563M231 548Q238 545 244 553M235 551Q233 559 240 567M235 551Q243 548 248 557M240 555Q237 562 243 570M240 555Q247 552 252 561M244 559Q241 565 246 571M244 559Q250 557 253 564M248 563Q245 569 249 576M248 563Q254 561 258 569M252 568Q249 573 253 580M252 568Q258 567 261 574M255 573Q253 577 256 583M255 573Q260 572 263 578M259 578Q258 581 259 584M259 578Q262 578 263 581M194 535Q196 537 198 537M194 535Q194 533 196 533M198 534Q201 536 205 536M198 534Q198 529 202 530M202 532Q205 535 209 535M202 532Q202 527 206 528M205 531Q209 535 215 536M205 531Q206 525 212 526M209 530Q213 535 219 536M209 530Q211 523 217 525M212 529Q216 534 222 536M212 529Q214 523 220 525M216 529Q219 534 225 536M216 529Q219 523 225 526M219 528Q223 536 231 540M219 528Q224 521 231 526M223 529Q225 535 231 538M223 529Q226 523 233 527M226 529Q227 536 234 539M226 529Q230 524 236 529M229 530Q230 536 236 540M229 530Q234 526 239 530M233 531Q233 538 238 542M233 531Q237 527 243 533M236 533Q235 538 240 542M236 533Q240 530 244 534M239 534Q238 540 243 545M239 534Q244 531 248 537M242 536Q241 541 244 544M242 536Q246 535 249 539M245 539Q244 541 246 543M245 539Q247 538 249 540M193 534Q196 534 198 533M193 534Q192 531 194 530M196 530Q201 531 204 529M196 530Q195 525 198 524M200 526Q205 528 209 526M200 526Q198 521 202 519M203 523Q208 525 212 524M203 523Q201 518 205 517M206 521Q213 524 218 522M206 521Q204 513 210 512M208 518Q217 522 223 520M208 518Q207 509 214 508M211 516Q218 520 224 519M211 516Q211 508 217 508M214 514Q220 519 226 518M214 514Q214 507 221 507M217 513Q224 519 232 519M217 513Q218 503 226 505M220 512Q226 519 234 519M220 512Q221 503 230 505M222 511Q227 518 235 519M222 511Q225 503 233 506M225 511Q229 518 237 520M225 511Q229 503 237 506M228 510Q230 517 238 520M228 510Q232 504 239 508M230 511Q232 517 238 520M230 511Q234 506 240 510M233 511Q233 516 237 518M233 511Q236 508 240 512M235 512Q235 516 238 518M235 512Q238 510 241 513M191 534Q193 533 193 532M191 534Q189 533 190 532M192 530Q195 530 196 528M192 530Q189 528 190 527M193 527Q197 526 198 524M193 527Q189 524 191 522M194 524Q199 523 200 520M194 524Q189 520 191 517M194 521Q201 520 202 517M194 521Q190 517 192 514M195 518Q201 517 203 514M195 518Q191 514 193 511M196 516Q202 515 204 512M196 516Q191 511 194 508M197 514Q204 513 205 509M197 514Q192 509 195 505M197 512Q204 511 206 508M197 512Q193 506 196 503M198 510Q205 509 208 506M198 510Q194 504 197 501M199 508Q205 508 208 505M199 508Q195 503 198 500M200 507Q206 507 209 504M200 507Q196 501 200 499M200 506Q206 507 209 504M200 506Q198 500 201 498M201 505Q206 506 208 504M201 505Q199 500 203 499M202 504Q205 505 207 505M202 504Q201 500 204 500M202 503Q204 505 206 505M202 503Q202 501 205 501M189 534Q191 532 191 531M189 534Q187 533 187 532M189 530Q192 527 191 526M189 530Q185 529 185 527M188 526Q192 523 191 520M188 526Q183 525 182 522M187 523Q192 519 190 516M187 523Q182 521 181 518M187 519Q191 515 189 512M187 519Q181 518 180 515M186 517Q191 512 189 508M186 517Q179 515 177 511M185 514Q190 509 188 506M185 514Q179 513 177 509M185 512Q190 506 187 502M185 512Q176 510 175 506M184 510Q189 504 186 500M184 510Q176 509 174 505M183 508Q188 502 185 499M183 508Q176 507 173 504M183 506Q187 500 183 497M183 506Q175 506 172 503M182 505Q185 499 182 497M182 505Q175 506 172 503M181 504Q183 499 180 498M181 504Q176 505 174 503M181 503Q182 498 178 498M181 503Q176 505 173 504M180 503Q180 499 176 500M180 503Q177 505 174 505M179 503Q178 500 175 502M179 503Q178 505 176 506M188 534Q189 531 187 530M188 534Q185 534 184 533M185 530Q187 526 184 525M185 530Q181 530 179 529M182 526Q185 520 181 518M182 526Q176 528 172 525M180 523Q182 517 178 516M180 523Q174 524 170 522M177 520Q179 513 174 511M177 520Q170 522 166 520M174 517Q177 509 171 508M174 517Q167 520 162 518M172 515Q173 508 168 507M172 515Q165 518 160 516M169 513Q171 504 163 504M169 513Q162 517 155 515M167 511Q167 502 159 502M167 511Q159 517 152 515M165 510Q164 501 156 502M165 510Q158 516 150 515M162 509Q161 501 154 503M162 509Q157 514 150 514M160 508Q157 500 149 502M160 508Q155 515 147 516M158 508Q155 502 149 504M158 508Q154 513 148 515M155 508Q152 503 147 506M155 508Q153 513 148 515M153 508Q150 504 146 507M153 508Q152 512 148 514M151 508Q148 506 146 509M151 508Q151 511 148 514M187 536Q187 533 185 533M187 536Q185 537 183 537M183 534Q183 530 180 530M183 534Q180 536 177 536M180 532Q180 528 176 528M180 532Q177 535 173 535M177 531Q176 525 170 526M177 531Q172 535 167 536M173 530Q172 525 167 526M173 530Q170 534 165 535M170 529Q168 524 163 526M170 529Q167 534 162 535M167 529Q164 522 157 525M167 529Q163 535 156 537M164 528Q161 523 155 526M164 528Q161 534 155 536M161 528Q157 523 151 526M161 528Q158 535 152 537M158 529Q153 523 146 527M158 529Q155 536 148 539M155 529Q150 524 145 529M155 529Q153 535 147 539M152 530Q147 525 141 531M152 530Q151 537 145 541M149 531Q144 527 140 532M149 531Q149 537 144 541M146 532Q142 530 139 534M146 532Q146 537 142 540M143 534Q140 532 137 536M143 534Q143 538 140 541M140 536Q138 534 136 537M140 536Q141 538 139 541M186 537Q185 535 182 536M186 537Q185 539 182 540M181 537Q179 533 175 535M181 537Q180 541 175 543M177 537Q174 533 170 536M177 537Q175 541 171 543M173 538Q168 532 162 537M173 538Q171 544 165 548M168 539Q164 534 158 539M168 539Q167 545 161 549M164 540Q159 535 153 541M164 540Q164 547 157 551M160 542Q155 538 150 543M160 542Q160 548 154 553M156 544Q149 539 143 547M156 544Q157 552 150 558M152 546Q146 543 141 549M152 546Q153 553 148 558M148 549Q142 546 138 553M148 549Q150 555 145 561M144 552Q139 550 135 556M144 552Q146 558 141 564M141 555Q135 553 131 560M141 555Q143 561 138 568M137 559Q131 558 128 564M137 559Q139 564 135 570M133 563Q129 562 126 568M133 563Q135 567 132 572M129 568Q125 567 123 573M129 568Q132 572 129 577M126 573Q123 573 122 575M126 573Q127 575 126 578M185 539Q183 536 180 539M185 539Q185 542 182 545M180 541Q177 537 173 541M180 541Q180 546 176 549M176 543Q171 539 165 544M176 543Q176 549 170 554M171 545Q165 541 159 548M171 545Q171 552 165 558M166 548Q160 544 155 551M166 548Q167 555 161 561M162 551Q154 547 148 556M162 551Q163 559 157 567M157 554Q149 551 143 560M157 554Q159 563 153 571M153 558Q145 555 140 564M153 558Q155 566 149 574M148 562Q139 560 134 570M148 562Q151 571 145 581M144 567Q135 565 129 576M144 567Q148 576 141 586M140 572Q131 570 126 581M140 572Q144 580 138 590M135 578Q128 576 125 585M135 578Q139 584 134 592M131 583Q124 582 121 591M131 583Q135 590 131 598M127 589Q121 589 119 596M127 589Q130 594 127 601M123 596Q119 596 118 601M123 596Q125 599 123 604M119 603Q116 603 115 607M119 603Q121 606 120 610" stroke="#070A18" stroke-width="1.3" fill="none"
    opacity="0.9" stroke-linecap="round"/><path d="M190 538Q227 546 256 603M190 538Q231 533 263 584M190 538Q223 517 248 541M190 538Q217 502 238 513M190 538Q197 505 203 503M190 538Q184 501 179 503M190 538Q167 501 149 509M190 538Q160 519 138 538M190 538Q152 531 122 578M190 538Q148 547 115 610" stroke="#070A18" stroke-width="2.3" fill="none"
    opacity="0.9" stroke-linecap="round"/><circle cx="181" cy="552" r="7.4" fill="#070A18" opacity="0.9"/>
        <circle cx="201" cy="556" r="6.5" fill="#070A18" opacity="0.9"/><path d="M173 766Q181 641 193 538"
      stroke="#57E9FF" stroke-width="1.5" fill="none" opacity=".28" stroke-linecap="round"/><path d="M272 753Q287 619 302 510L309 510Q300 619 296 753Z" fill="#070A18" opacity="0.9"/><path d="M276 729h18M279 705h16.8M281 682h15.6M284 659h14.4M286 636h13.2M289 614h12M292 592h10.9M294 571h9.7M297 550h8.5M300 530h7.3" stroke="#05070F" stroke-width="2" opacity="0.45" fill="none"/><path d="M311 511Q311 515 314 517M311 511Q313 509 316 512M316 513Q316 517 320 520M316 513Q319 510 323 514M321 515Q321 522 326 527M321 515Q326 512 331 518M326 518Q325 524 330 530M326 518Q331 515 336 521M330 521Q329 528 335 534M330 521Q337 518 342 525M335 524Q333 533 341 541M335 524Q343 520 350 530M340 528Q338 537 345 546M340 528Q349 524 355 535M345 532Q342 541 349 550M345 532Q353 529 359 539M349 536Q346 544 352 552M349 536Q357 534 361 543M354 541Q350 549 356 559M354 541Q362 539 367 549M358 546Q355 554 360 562M358 546Q366 545 370 554M362 552Q358 559 364 569M362 552Q371 550 375 561M367 557Q363 564 367 572M367 557Q374 556 377 565M371 564Q368 569 371 576M371 564Q377 563 379 570M375 570Q372 575 375 581M375 570Q380 570 383 576M379 577Q377 580 379 584M379 577Q382 577 384 581M310 509Q312 511 315 512M310 509Q311 506 314 507M315 509Q317 512 320 513M315 509Q317 505 320 507M320 509Q322 514 328 517M320 509Q323 503 328 507M324 509Q326 515 331 517M324 509Q328 504 333 508M329 510Q330 516 335 519M329 510Q332 505 338 509M333 511Q334 519 341 524M333 511Q339 505 346 511M337 512Q338 519 344 524M337 512Q343 508 348 514M341 514Q341 523 349 529M341 514Q349 509 355 517M346 516Q345 525 352 533M346 516Q353 512 360 520M350 519Q349 526 355 533M350 519Q356 515 362 523M354 522Q352 530 358 537M354 522Q361 518 367 527M358 525Q356 531 361 537M358 525Q364 523 368 530M362 529Q359 535 365 543M362 529Q369 526 373 535M366 533Q364 537 367 543M366 533Q371 531 374 537M369 537Q367 541 371 547M369 537Q374 536 377 542M373 542Q372 544 374 547M373 542Q376 541 377 544M310 507Q312 509 315 509M310 507Q310 504 313 504M314 505Q317 508 321 508M314 505Q314 501 318 502M318 504Q322 507 326 508M318 504Q319 499 324 500M322 502Q327 508 334 509M322 502Q324 495 331 497M326 501Q331 508 338 509M326 501Q329 494 336 497M330 501Q334 507 341 508M330 501Q333 494 340 497M334 500Q337 507 344 509M334 500Q337 494 344 497M338 500Q341 507 348 510M338 500Q342 494 349 498M342 501Q345 510 353 514M342 501Q347 493 356 499M346 501Q347 509 355 514M346 501Q351 495 358 501M349 502Q350 510 357 515M349 502Q355 497 361 503M353 503Q353 512 361 518M353 503Q360 498 366 505M357 505Q356 512 362 517M357 505Q362 501 367 507M360 507Q360 512 364 516M360 507Q364 504 368 509M364 509Q363 514 367 518M364 509Q368 507 371 512M367 512Q366 515 369 517M367 512Q370 511 372 514M308 506Q311 507 312 506M308 506Q307 504 309 503M311 503Q314 504 317 503M311 503Q309 499 312 498M313 500Q318 502 321 500M313 500Q311 495 315 494M316 498Q321 500 325 498M316 498Q314 492 318 491M318 495Q325 498 329 496M318 495Q316 488 322 487M320 493Q327 497 332 495M320 493Q319 486 325 485M323 491Q328 495 333 493M323 491Q322 485 327 485M325 490Q332 494 338 493M325 490Q325 482 331 482M327 489Q332 493 337 492M327 489Q327 482 333 483M329 488Q334 492 340 493M329 488Q330 481 336 482M332 487Q336 492 341 493M332 487Q333 481 339 483M334 486Q337 491 342 492M334 486Q336 481 341 483M336 486Q338 492 344 494M336 486Q339 481 344 484M338 486Q340 492 345 494M338 486Q341 482 346 485M340 487Q341 491 345 493M340 487Q343 484 347 487M342 487Q342 490 345 492M342 487Q344 486 346 488M306 505Q309 504 310 502M306 505Q304 503 305 501M307 500Q312 499 313 496M307 500Q303 497 304 494M308 496Q313 494 314 491M308 496Q303 492 305 489M309 492Q316 490 316 486M309 492Q303 487 305 483M309 488Q317 486 318 482M309 488Q303 483 305 479M310 484Q317 483 318 479M310 484Q305 480 307 476M311 481Q318 479 319 475M311 481Q305 476 307 472M312 478Q319 476 321 472M312 478Q306 473 308 469M312 475Q320 474 321 470M312 475Q307 470 309 466M313 473Q322 471 323 467M313 473Q307 467 310 463M314 470Q322 469 324 465M314 470Q308 464 311 461M314 469Q322 468 325 464M314 469Q309 462 312 459M315 467Q321 467 323 464M315 467Q311 462 314 460M316 465Q322 466 324 463M316 465Q312 460 316 458M316 464Q320 465 322 463M316 464Q314 461 317 459M317 463Q320 464 321 464M317 463Q316 461 318 460M305 505Q306 504 306 502M305 505Q302 505 302 503M304 501Q307 498 305 496M304 501Q300 500 299 498M303 497Q307 493 305 490M303 497Q297 496 296 493M302 494Q306 490 304 487M302 494Q296 493 295 490M301 491Q306 485 303 482M301 491Q294 489 292 486M300 487Q305 483 302 480M300 487Q293 487 291 483M299 485Q303 480 301 477M299 485Q292 484 290 481M298 482Q303 477 300 473M298 482Q290 482 288 478M297 480Q301 475 298 472M297 480Q290 480 288 476M296 478Q300 472 297 470M296 478Q289 478 286 475M295 477Q299 471 295 468M295 477Q288 477 285 474M294 475Q297 469 293 467M294 475Q288 476 285 474M294 474Q295 469 291 468M294 474Q288 476 285 474M293 473Q293 468 289 467M293 473Q288 476 284 475M292 473Q291 469 287 469M292 473Q289 476 285 476M291 472Q290 470 287 471M291 472Q290 475 287 476M302 505Q304 502 302 501M302 505Q299 506 297 505M299 501Q301 497 298 496M299 501Q295 503 292 501M296 498Q299 491 293 489M296 498Q289 500 285 497M293 494Q295 488 290 486M293 494Q286 497 282 495M290 491Q292 484 286 482M290 491Q282 494 277 492M287 489Q288 481 282 480M287 489Q280 492 274 490M284 486Q285 478 278 477M284 486Q276 491 270 489M281 484Q282 475 273 474M281 484Q273 490 265 488M278 483Q278 474 271 475M278 483Q271 488 265 487M275 481Q274 473 267 474M275 481Q269 487 262 487M272 480Q271 472 263 474M272 480Q267 486 260 487M270 480Q267 472 260 475M270 480Q265 486 258 487M267 479Q264 472 257 475M267 479Q263 486 256 488M264 479Q261 473 254 477M264 479Q262 485 255 488M262 479Q259 476 255 479M262 479Q261 483 257 486M259 480Q257 478 255 480M259 480Q259 483 256 484M301 507Q301 504 298 504M301 507Q299 509 296 509M297 505Q297 500 293 501M297 505Q294 507 290 507M293 503Q292 497 287 498M293 503Q289 507 284 507M289 501Q288 495 282 497M289 501Q285 506 279 506M285 500Q282 492 275 495M285 500Q280 507 272 508M281 499Q278 492 270 495M281 499Q276 506 269 508M277 499Q272 491 264 495M277 499Q273 507 264 510M273 499Q268 492 260 497M273 499Q270 507 261 511M269 499Q263 492 254 498M269 499Q266 509 257 514M265 500Q259 494 251 500M265 500Q264 509 255 515M261 501Q256 497 250 503M261 501Q261 509 254 514M258 503Q251 498 244 506M258 503Q258 511 251 518M254 505Q248 501 243 508M254 505Q255 512 249 517M251 507Q245 504 241 511M251 507Q252 513 247 519M247 510Q243 508 239 513M247 510Q248 515 245 519M244 513Q241 512 239 516M244 513Q245 516 242 519M300 509Q299 506 296 507M300 509Q299 511 296 512M295 508Q293 504 289 507M295 508Q293 512 289 514M290 508Q287 504 282 507M290 508Q288 513 283 516M285 509Q280 502 273 508M285 509Q283 516 275 520M280 510Q275 504 268 509M280 510Q278 517 271 521M275 511Q268 505 261 512M275 511Q274 520 266 526M270 513Q264 508 257 515M270 513Q270 521 262 527M265 515Q258 510 251 518M265 515Q266 524 258 531M260 518Q251 512 244 523M260 518Q262 528 253 537M256 521Q247 517 241 526M256 521Q257 530 250 538M251 524Q242 521 236 531M251 524Q254 533 246 542M247 528Q238 525 232 536M247 528Q249 537 243 546M242 533Q236 531 232 539M242 533Q245 539 240 546M238 538Q232 536 229 543M238 538Q240 543 236 549M233 543Q229 542 227 547M233 543Q236 547 233 552M229 549Q226 548 224 552M229 549Q231 552 229 555M301 511Q298 509 296 512M301 511Q300 514 298 516M296 513Q292 511 289 514M296 513Q296 518 292 521M291 516Q286 512 281 518M291 516Q291 522 286 526M286 518Q280 515 275 521M286 518Q287 525 281 530M281 521Q275 518 270 525M281 521Q282 528 277 535M276 525Q268 521 263 530M276 525Q278 533 272 541M272 528Q265 525 260 534M272 528Q274 536 268 543M267 532Q258 529 252 540M267 532Q270 542 263 551M263 537Q255 535 251 543M263 537Q266 544 260 552M258 542Q250 540 245 550M258 542Q262 550 256 559M254 547Q246 545 242 555M254 547Q257 554 252 563M250 552Q243 551 240 559M250 552Q253 558 249 566M246 558Q239 557 237 565M246 558Q249 563 245 571M241 564Q235 564 232 571M241 564Q245 570 241 577M237 571Q232 570 230 577M237 571Q240 575 237 581M233 578Q230 578 229 582M233 578Q235 580 234 584" stroke="#070A18" stroke-width="1.3" fill="none"
    opacity="0.9" stroke-linecap="round"/><path d="M306 510Q349 522 383 584M306 510Q346 502 377 547M306 510Q342 489 370 515M306 510Q327 480 344 488M306 510Q312 467 318 463M306 510Q297 471 290 472M306 510Q278 472 257 481M306 510Q269 485 240 516M306 510Q260 500 225 555M306 510Q263 522 229 585" stroke="#070A18" stroke-width="2.4" fill="none"
    opacity="0.9" stroke-linecap="round"/><circle cx="295" cy="525" r="7.8" fill="#070A18" opacity="0.9"/>
        <circle cx="317" cy="529" r="7" fill="#070A18" opacity="0.9"/><path d="M292 753Q298 619 308 510"
      stroke="#57E9FF" stroke-width="1.6" fill="none" opacity=".28" stroke-linecap="round"/><path d="M489 738Q509 585 529 461L537 461Q524 585 517 738Z" fill="#070A18" opacity="0.9"/><path d="M495 710h20.5M499 683h19.2M502 657h17.8M505 631h16.4M508 605h15.1M512 580h13.7M515 555h12.4M519 531h11M522 507h9.6M526 484h8.3" stroke="#05070F" stroke-width="2.3" opacity="0.45" fill="none"/><path d="M538 462Q539 465 542 467M538 462Q541 460 543 463M544 464Q544 469 548 472M544 464Q547 461 551 465M549 466Q549 473 555 478M549 466Q554 462 560 468M554 469Q554 477 560 483M554 469Q561 465 567 472M559 472Q558 480 564 486M559 472Q566 468 571 476M564 475Q562 485 570 494M564 475Q573 471 580 481M569 479Q567 488 574 497M569 479Q578 475 584 485M574 483Q571 492 578 500M574 483Q582 480 588 490M579 488Q576 495 582 504M579 488Q587 485 592 494M583 492Q580 501 586 511M583 492Q593 490 598 501M588 498Q585 506 590 515M588 498Q597 496 601 506M593 503Q589 511 594 521M593 503Q601 502 606 512M597 509Q594 515 598 522M597 509Q604 508 607 516M602 515Q598 521 602 528M602 515Q608 515 611 522M606 522Q603 526 606 532M606 522Q611 522 613 528M610 529Q608 532 610 537M610 529Q614 529 616 534M539 460Q540 463 543 464M539 460Q540 457 543 459M544 460Q547 465 552 467M544 460Q547 455 552 458M550 460Q552 467 558 469M550 460Q554 455 560 459M555 461Q557 469 566 474M555 461Q561 454 569 460M561 462Q562 470 569 474M561 462Q566 457 573 462M566 464Q567 473 575 479M566 464Q573 458 581 465M571 466Q571 476 580 483M571 466Q579 460 587 469M577 469Q576 479 584 488M577 469Q586 463 593 473M582 472Q580 480 587 488M582 472Q589 468 595 476M587 475Q584 485 592 494M587 475Q595 472 602 482M592 480Q589 489 596 499M592 480Q601 476 608 487M596 484Q593 493 600 503M596 484Q606 481 611 492M601 489Q598 496 603 503M601 489Q608 488 612 496M606 495Q603 500 607 506M606 495Q612 494 614 501M611 501Q608 505 611 511M611 501Q615 500 618 506M615 507Q613 510 615 514M615 507Q618 507 620 511M538 458Q540 460 543 460M538 458Q538 455 541 455M542 456Q546 459 549 459M542 456Q543 451 547 452M547 454Q551 458 557 459M547 454Q548 448 554 449M552 453Q556 458 563 459M552 453Q553 446 560 447M556 452Q560 458 567 459M556 452Q559 444 566 447M561 451Q565 459 574 462M561 451Q564 442 573 446M565 451Q569 459 577 462M565 451Q569 443 578 447M569 451Q572 459 580 463M569 451Q574 444 582 449M574 451Q576 462 586 467M574 451Q580 443 590 451M578 452Q579 462 588 468M578 452Q585 446 593 453M582 454Q582 463 590 469M582 454Q589 448 596 456M586 456Q586 463 592 468M586 456Q592 452 597 458M590 458Q589 465 595 471M590 458Q596 454 602 461M594 460Q593 467 598 473M594 460Q600 458 604 464M598 463Q596 469 600 474M598 463Q603 461 606 467M601 467Q600 470 603 474M601 467Q605 466 607 470M536 456Q539 457 540 456M536 456Q535 454 536 453M539 452Q544 454 547 451M539 452Q536 447 540 446M542 449Q547 450 550 448M542 449Q540 444 543 443M545 445Q551 447 555 445M545 445Q542 439 547 437M547 442Q554 444 558 442M547 442Q545 436 550 434M550 439Q558 442 564 440M550 439Q548 431 554 429M553 437Q562 441 569 438M553 437Q551 427 558 426M556 435Q563 438 569 436M556 435Q554 426 561 426M558 433Q565 437 571 435M558 433Q557 424 564 424M561 431Q568 436 575 435M561 431Q561 422 568 422M563 430Q571 436 579 435M563 430Q564 420 573 421M566 428Q572 434 578 434M566 428Q567 421 575 422M568 428Q574 434 581 435M568 428Q571 420 578 422M571 427Q574 432 579 433M571 427Q573 422 578 424M573 427Q576 432 581 434M573 427Q576 422 581 425M576 427Q577 430 580 432M576 427Q578 424 581 426M534 455Q538 454 538 452M534 455Q531 453 532 451M535 449Q540 448 541 445M535 449Q531 446 532 443M536 444Q543 442 544 438M536 444Q530 439 532 436M537 439Q546 437 547 432M537 439Q530 433 532 429M538 434Q547 432 548 427M538 434Q531 428 533 424M539 430Q549 428 550 422M539 430Q531 424 534 419M540 426Q549 424 550 419M540 426Q533 420 536 416M541 422Q550 420 552 415M541 422Q534 416 537 411M542 419Q551 417 552 413M542 419Q535 413 538 408M543 416Q552 414 554 409M543 416Q536 409 539 404M543 413Q554 412 557 406M543 413Q536 405 540 400M544 411Q554 410 557 405M544 411Q538 403 542 399M545 408Q553 408 556 404M545 408Q540 402 544 398M546 407Q554 407 556 403M546 407Q542 400 545 397M547 405Q552 406 554 403M547 405Q544 401 547 399M548 404Q551 405 553 403M548 404Q546 400 549 399M532 455Q534 452 533 451M532 455Q528 454 528 452M530 449Q534 446 532 443M530 449Q525 448 524 445M529 444Q534 439 531 435M529 444Q522 442 520 438M527 438Q533 433 530 429M527 438Q519 437 517 433M526 434Q532 427 529 423M526 434Q517 432 515 427M524 429Q531 422 528 418M524 429Q515 428 512 423M523 425Q530 417 526 413M523 425Q512 424 510 418M522 421Q529 413 525 408M522 421Q510 420 507 414M520 418Q527 410 522 406M520 418Q510 417 507 412M519 415Q525 407 520 403M519 415Q509 414 506 410M518 412Q524 404 519 400M518 412Q507 412 504 407M516 409Q522 401 516 397M516 409Q506 410 502 406M515 407Q520 399 514 396M515 407Q506 409 502 405M514 405Q517 399 512 397M514 405Q507 407 503 404M513 404Q514 399 510 398M513 404Q508 406 504 404M511 403Q512 399 509 399M511 403Q508 404 506 404M530 456Q531 453 529 452M530 456Q526 457 524 455M527 452Q529 447 525 445M527 452Q521 453 518 451M524 448Q526 442 522 440M524 448Q517 450 514 447M521 445Q523 438 518 437M521 445Q514 447 510 444M518 441Q520 434 514 432M518 441Q510 444 505 442M515 439Q517 429 510 427M515 439Q506 442 499 440M512 436Q514 427 506 425M512 436Q503 440 496 438M509 434Q510 424 502 423M509 434Q500 439 493 437M506 432Q506 423 498 423M506 432Q498 437 491 436M503 430Q503 421 494 422M503 430Q496 437 488 436M501 429Q499 421 492 423M501 429Q495 435 488 435M498 428Q496 420 488 423M498 428Q493 435 485 436M495 428Q493 422 486 424M495 428Q492 434 486 435M493 428Q490 423 484 426M493 428Q490 433 485 435M490 428Q487 424 483 427M490 428Q489 432 484 435M488 428Q485 425 481 428M488 428Q487 432 483 435M529 458Q529 455 526 455M529 458Q526 460 524 459M524 456Q524 450 519 450M524 456Q520 459 515 458M520 453Q519 447 513 448M520 453Q515 458 510 458M515 452Q514 444 506 445M515 452Q510 458 502 458M511 450Q509 443 502 445M511 450Q506 456 500 457M507 449Q505 442 498 445M507 449Q503 456 496 457M503 449Q500 442 493 445M503 449Q499 455 492 457M499 449Q494 441 486 445M499 449Q495 457 487 460M495 449Q490 442 483 447M495 449Q492 456 485 460M491 449Q486 443 478 448M491 449Q489 457 481 461M487 450Q481 444 474 450M487 450Q486 458 478 463M483 451Q478 447 472 453M483 451Q483 458 477 463M479 453Q474 449 469 455M479 453Q479 459 474 464M476 455Q471 452 466 458M476 455Q476 461 471 466M472 457Q467 455 463 460M472 457Q473 463 469 468M468 460Q465 459 463 462M468 460Q469 463 467 466M527 460Q525 456 521 458M527 460Q525 464 521 465M521 460Q518 455 512 458M521 460Q518 465 513 467M514 460Q510 454 504 458M514 460Q512 467 505 470M508 461Q503 454 495 460M508 461Q506 469 498 474M503 462Q495 455 486 462M503 462Q501 472 491 478M497 464Q490 458 482 465M497 464Q496 473 488 480M491 466Q483 461 476 469M491 466Q491 476 483 483M485 469Q476 463 468 474M485 469Q486 480 477 488M480 473Q470 468 463 478M480 473Q481 483 473 492M474 476Q464 472 457 483M474 476Q477 487 468 497M469 481Q459 477 453 488M469 481Q472 491 464 500M463 486Q455 483 449 493M463 486Q466 494 460 504M458 491Q449 489 444 500M458 491Q462 500 455 510M453 497Q446 496 442 505M453 497Q456 504 451 512M448 504Q443 503 440 509M448 504Q450 508 447 514M443 511Q440 510 438 515M443 511Q445 514 443 518M528 462Q525 460 522 463M528 462Q527 466 524 469M523 465Q518 461 514 466M523 465Q522 470 518 474M517 467Q513 464 508 469M517 467Q518 473 513 477M512 470Q506 466 500 474M512 470Q513 477 507 484M507 473Q499 469 493 478M507 473Q509 482 502 490M502 477Q495 474 490 482M502 477Q504 484 498 491M498 481Q490 478 485 487M498 481Q500 488 494 496M493 486Q484 483 478 493M493 486Q496 494 489 504M488 491Q480 488 475 498M488 491Q491 498 486 507M483 496Q473 494 468 506M483 496Q488 505 481 516M479 502Q472 500 468 509M479 502Q482 508 478 516M474 508Q467 507 463 516M474 508Q478 514 474 523M470 514Q463 514 460 523M470 514Q474 521 470 529M466 521Q459 521 456 530M466 521Q470 527 466 536M461 529Q457 529 455 534M461 529Q464 533 462 538M457 537Q454 537 453 540M457 537Q459 539 458 543" stroke="#070A18" stroke-width="1.5" fill="none"
    opacity="0.9" stroke-linecap="round"/><path d="M533 461Q579 472 614 536M533 461Q582 453 620 514M533 461Q574 436 605 471M533 461Q558 423 578 427M533 461Q542 409 548 403M533 461Q520 408 510 402M533 461Q506 421 485 429M533 461Q494 435 465 463M533 461Q479 452 438 518M533 461Q488 473 453 545" stroke="#070A18" stroke-width="2.8" fill="none"
    opacity="0.9" stroke-linecap="round"/><circle cx="521" cy="478" r="8.9" fill="#070A18" opacity="0.9"/>
        <circle cx="546" cy="482" r="7.9" fill="#070A18" opacity="0.9"/><path d="M513 738Q522 585 536 461"
      stroke="#57E9FF" stroke-width="1.9" fill="none" opacity=".28" stroke-linecap="round"/><rect width="620" height="760" fill="url(#voile-real-event)"/><path d="M-30 775Q-5 540 20 348L33 348Q18 540 12 775Z" fill="#04060E" opacity="0.97"/><path d="M-22 733h31.7M-18 691h29.6M-14 650h27.5M-10 610h25.4M-6 570h23.3M-1 532h21.2M3 493h19.1M8 456h17M12 419h14.9M17 383h12.8" stroke="#05070F" stroke-width="3.6" opacity="0.485" fill="none"/><path d="M34 350Q35 355 39 358M34 350Q38 347 42 351M42 353Q42 360 48 364M42 353Q47 348 53 354M49 356Q49 365 57 373M49 356Q57 350 64 359M56 360Q56 369 63 376M56 360Q64 355 71 363M63 364Q62 374 70 383M63 364Q72 359 80 369M70 369Q68 382 79 395M70 369Q83 362 93 377M77 374Q74 386 84 398M77 374Q89 369 98 382M84 379Q80 393 91 407M84 379Q97 374 106 390M91 386Q86 400 97 414M91 386Q105 381 114 397M97 392Q93 405 102 419M97 392Q110 389 118 404M104 399Q100 409 107 421M104 399Q114 397 120 409M110 407Q106 416 112 427M110 407Q120 405 125 417M117 415Q112 424 118 435M117 415Q126 414 131 426M123 424Q119 431 124 440M123 424Q131 423 135 433M129 433Q125 440 129 449M129 433Q137 432 140 442M135 443Q132 447 135 454M135 443Q140 442 143 449M34 347Q36 350 40 351M34 347Q35 343 39 344M41 346Q44 351 49 353M41 346Q44 341 49 343M48 346Q51 353 59 356M48 346Q52 339 60 343M55 346Q59 356 68 361M55 346Q61 338 71 344M62 347Q65 359 76 365M62 347Q70 338 80 346M69 349Q71 362 84 370M69 349Q78 339 90 349M75 350Q77 362 87 370M75 350Q84 342 94 352M82 353Q82 366 94 375M82 353Q92 345 102 356M89 356Q88 370 100 381M89 356Q100 348 111 361M95 360Q94 372 104 383M95 360Q106 353 115 365M101 364Q99 375 108 386M101 364Q112 358 120 370M107 368Q105 379 113 390M107 368Q118 364 125 376M114 373Q111 383 118 393M114 373Q123 370 129 381M120 379Q117 386 122 394M120 379Q127 377 132 386M125 385Q123 391 127 398M125 385Q132 384 135 391M131 392Q129 396 132 400M131 392Q135 391 137 396M34 343Q39 346 43 346M34 343Q34 338 39 338M42 339Q49 345 56 344M42 339Q42 330 50 331M50 336Q58 343 68 343M50 336Q51 324 61 326M57 333Q67 343 79 344M57 333Q60 319 72 322M65 331Q73 341 84 343M65 331Q68 318 80 322M72 329Q79 340 92 343M72 329Q76 316 89 321M79 328Q86 340 98 344M79 328Q85 316 97 322M86 328Q92 340 104 345M86 328Q93 316 105 323M93 328Q98 344 113 351M93 328Q102 315 117 325M100 329Q104 345 118 353M100 329Q110 317 124 328M107 331Q109 346 122 355M107 331Q117 320 130 332M113 333Q114 346 126 356M113 333Q124 325 135 336M120 336Q119 349 131 359M120 336Q130 328 141 340M126 339Q125 351 135 361M126 339Q136 334 145 345M133 343Q131 353 138 362M133 343Q141 339 148 349M139 348Q137 353 142 359M139 348Q144 346 147 352M32 341Q37 342 39 341M32 341Q30 337 33 335M37 335Q44 337 49 334M37 335Q34 328 39 326M42 330Q52 333 58 329M42 330Q38 319 45 317M46 324Q57 328 64 325M46 324Q43 313 51 311M51 320Q61 324 68 321M51 320Q48 309 56 308M56 316Q67 321 75 318M56 316Q53 304 63 302M60 312Q73 318 83 315M60 312Q58 298 69 297M65 309Q78 316 89 314M65 309Q64 294 76 293M70 306Q81 314 93 313M70 306Q69 291 82 292M74 303Q85 313 98 313M74 303Q75 288 88 290M78 302Q88 311 99 311M78 302Q80 288 92 291M83 300Q90 310 102 311M83 300Q86 288 97 291M87 299Q93 309 104 312M87 299Q91 288 102 292M91 299Q95 307 103 310M91 299Q95 291 104 295M95 299Q98 306 105 309M95 299Q99 292 106 297M99 299Q100 305 105 307M99 299Q102 295 107 299M29 339Q34 338 35 335M29 339Q24 336 26 333M31 331Q38 330 39 326M31 331Q25 326 27 323M33 324Q44 321 46 315M33 324Q24 316 28 310M35 317Q47 315 49 308M35 317Q26 308 30 303M37 310Q49 308 52 302M37 310Q28 301 32 295M39 304Q54 303 58 294M39 304Q28 293 34 286M40 299Q54 298 58 291M40 299Q31 289 37 283M42 294Q57 294 62 286M42 294Q33 283 39 276M44 290Q59 290 65 283M44 290Q35 278 42 272M46 287Q61 287 67 281M46 287Q38 274 46 269M48 283Q62 285 69 279M48 283Q41 271 49 266M49 281Q63 284 71 279M49 281Q44 268 54 264M51 279Q63 284 71 281M51 279Q48 267 58 265M53 277Q62 284 70 283M53 277Q53 267 62 267M55 277Q60 283 68 285M55 277Q57 268 65 271M56 276Q58 282 63 284M56 276Q59 272 65 275M25 340Q29 336 27 334M25 340Q19 339 18 336M23 333Q29 327 26 324M23 333Q15 331 14 327M21 326Q28 319 25 314M21 326Q11 324 9 319M19 319Q28 311 23 305M19 319Q7 317 5 311M17 313Q26 304 22 298M17 313Q4 311 1 304M15 307Q23 299 19 294M15 307Q4 306 2 300M13 302Q23 292 18 285M13 302Q0 300 -4 293M12 297Q22 286 16 279M12 297Q-3 295 -7 288M10 292Q18 283 13 278M10 292Q-2 291 -6 285M8 288Q16 278 10 273M8 288Q-4 288 -8 282M6 284Q15 273 8 268M6 284Q-7 284 -12 278M5 281Q12 271 5 266M5 281Q-8 282 -13 276M3 278Q9 269 3 265M3 278Q-7 279 -12 275M2 276Q5 268 0 266M2 276Q-6 277 -10 274M0 273Q3 266 -3 264M0 273Q-7 276 -12 273M-2 272Q0 267 -4 267M-2 272Q-6 274 -9 272M22 342Q24 338 21 336M22 342Q18 343 15 341M18 337Q20 331 16 329M18 337Q12 338 8 336M13 331Q16 323 10 321M13 331Q5 334 -1 331M9 327Q12 318 5 316M9 327Q0 330 -5 327M5 323Q8 311 -1 309M5 323Q-6 327 -13 323M1 319Q3 307 -6 305M1 319Q-11 324 -19 321M-4 316Q-1 303 -12 302M-4 316Q-15 321 -24 319M-8 313Q-6 299 -17 299M-8 313Q-19 319 -29 317M-12 310Q-11 296 -23 296M-12 310Q-23 318 -34 317M-15 308Q-16 294 -28 296M-15 308Q-26 317 -37 316M-19 306Q-21 293 -34 295M-19 306Q-29 316 -40 316M-23 305Q-26 294 -37 297M-23 305Q-30 314 -41 315M-27 304Q-31 294 -41 298M-27 304Q-33 313 -43 315M-31 304Q-35 295 -44 300M-31 304Q-35 313 -44 316M-34 304Q-38 298 -45 302M-34 304Q-37 311 -43 314M-38 304Q-41 301 -45 304M-38 304Q-39 309 -43 311M20 344Q20 340 16 341M20 344Q17 347 14 347M14 342Q13 336 8 337M14 342Q10 345 5 345M8 339Q6 332 0 333M8 339Q2 345 -4 345M1 337Q-1 327 -10 330M1 337Q-5 345 -14 346M-5 336Q-8 325 -19 328M-5 336Q-11 345 -22 347M-11 335Q-15 323 -27 328M-11 335Q-17 345 -29 348M-16 334Q-22 322 -35 328M-16 334Q-23 346 -35 350M-22 334Q-28 324 -39 330M-22 334Q-27 345 -38 350M-28 334Q-34 326 -44 332M-28 334Q-31 345 -41 349M-34 335Q-41 326 -52 334M-34 335Q-36 347 -47 353M-39 337Q-48 328 -58 337M-39 337Q-41 349 -52 356M-45 338Q-54 331 -63 341M-45 338Q-45 350 -56 358M-50 341Q-58 335 -66 344M-50 341Q-50 351 -58 358M-55 344Q-62 340 -68 347M-55 344Q-55 351 -61 357M-60 347Q-66 344 -70 350M-60 347Q-59 353 -64 358M-66 350Q-70 349 -73 354M-66 350Q-64 355 -68 359M19 347Q17 342 13 344M19 347Q17 351 12 352M12 346Q9 340 3 343M12 346Q9 352 3 354M5 346Q0 338 -9 343M5 346Q1 355 -8 358M-3 346Q-8 338 -17 344M-3 346Q-6 356 -15 360M-10 347Q-17 338 -28 346M-10 347Q-12 359 -23 365M-16 349Q-26 339 -37 349M-16 349Q-19 362 -31 370M-23 351Q-31 344 -40 353M-23 351Q-24 362 -34 369M-30 354Q-41 346 -51 357M-30 354Q-30 367 -42 377M-37 357Q-47 350 -56 362M-37 357Q-36 369 -46 379M-43 361Q-54 354 -64 367M-43 361Q-42 373 -52 384M-50 365Q-59 360 -67 371M-50 365Q-48 376 -56 386M-56 370Q-66 366 -73 377M-56 370Q-53 380 -61 390M-62 375Q-73 371 -80 384M-62 375Q-59 386 -67 397M-68 381Q-76 379 -80 388M-68 381Q-65 388 -71 396M-74 388Q-82 386 -86 395M-74 388Q-71 395 -76 403M-80 395Q-85 394 -88 400M-80 395Q-78 399 -81 405M18 350Q14 347 10 351M18 350Q17 355 13 358M10 353Q4 348 -3 355M10 353Q9 361 3 367M1 357Q-7 351 -15 360M1 357Q2 367 -7 375M-7 361Q-18 355 -28 367M-7 361Q-6 374 -16 385M-15 367Q-27 360 -37 374M-15 367Q-13 380 -24 392M-23 372Q-34 367 -42 380M-23 372Q-20 384 -30 396M-31 379Q-43 374 -51 388M-31 379Q-27 391 -37 404M-38 386Q-51 382 -59 397M-38 386Q-34 398 -43 412M-46 394Q-61 389 -70 408M-46 394Q-40 408 -51 425M-53 402Q-66 399 -72 414M-53 402Q-48 413 -56 427M-61 411Q-73 409 -79 423M-61 411Q-55 422 -63 435M-68 421Q-81 419 -88 435M-68 421Q-61 433 -69 448M-75 431Q-85 430 -89 442M-75 431Q-70 440 -76 451M-82 442Q-91 442 -95 453M-82 442Q-77 450 -82 460M-89 454Q-96 454 -99 463M-89 454Q-85 460 -89 469M-96 466Q-101 466 -102 472M-96 466Q-93 470 -95 476" stroke="#04060E" stroke-width="2.4" fill="none"
    opacity="0.97" stroke-linecap="round"/><path d="M27 348Q91 365 141 453M27 348Q89 335 137 399M27 348Q93 305 145 354M27 348Q70 290 103 300M27 348Q44 272 58 276M27 348Q10 280 -3 270M27 348Q-12 296 -41 305M27 348Q-28 317 -71 355M27 348Q-37 336 -86 402M27 348Q-46 365 -102 480" stroke="#04060E" stroke-width="4.3" fill="none"
    opacity="0.97" stroke-linecap="round"/><circle cx="9" cy="375" r="13.8" fill="#04060E" opacity="0.97"/>
        <circle cx="47" cy="381" r="12.2" fill="#04060E" opacity="0.97"/><path d="M6 775Q15 540 31 348"
      stroke="#57E9FF" stroke-width="2.9" fill="none" opacity=".28" stroke-linecap="round"/><path d="M605 775Q597 501 580 277L595 277Q624 501 654 775Z" fill="#04060E" opacity="0.97"/><path d="M607 726h36.9M605 677h34.5M603 629h32M600 582h29.6M598 536h27.1M595 491h24.7M593 447h22.2M590 403h19.8M587 360h17.3M584 318h14.9" stroke="#05070F" stroke-width="4.1" opacity="0.485" fill="none"/><path d="M596 280Q597 285 601 288M596 280Q600 276 604 280M605 283Q605 291 612 297M605 283Q611 278 618 285M614 287Q613 297 622 305M614 287Q622 282 630 291M622 292Q621 304 631 314M622 292Q632 286 641 297M630 297Q628 309 638 320M630 297Q641 292 650 304M639 303Q635 319 648 333M639 303Q653 297 664 313M647 310Q643 325 655 341M647 310Q662 304 672 321M655 317Q650 331 661 346M655 317Q669 312 678 328M663 324Q658 338 667 352M663 324Q676 320 684 336M670 333Q665 346 674 361M670 333Q684 329 692 346M678 342Q671 356 682 374M678 342Q694 338 702 357M685 351Q678 365 688 382M685 351Q701 348 708 367M693 361Q687 372 694 385M693 361Q705 359 711 374M700 372Q695 381 701 393M700 372Q711 371 715 384M707 383Q703 390 707 400M707 383Q716 382 720 393M714 395Q711 399 714 405M714 395Q720 395 722 401M596 276Q598 280 603 282M596 276Q598 271 603 273M604 275Q608 284 617 287M604 275Q609 267 617 272M613 276Q616 285 626 289M613 276Q618 267 628 273M621 277Q624 289 636 296M621 277Q629 266 641 275M629 278Q631 292 644 301M629 278Q639 268 651 278M637 281Q638 294 650 303M637 281Q647 272 659 283M645 284Q645 298 657 308M645 284Q656 275 667 288M653 288Q652 301 663 311M653 288Q664 280 674 293M660 292Q658 306 670 319M660 292Q673 285 683 299M668 297Q665 309 675 321M668 297Q679 292 687 305M675 303Q672 316 681 328M675 303Q687 298 696 312M682 310Q678 323 688 336M682 310Q695 305 704 321M690 317Q686 326 693 337M690 317Q699 314 705 326M697 325Q692 335 699 347M697 325Q707 323 713 336M703 334Q700 340 705 348M703 334Q711 332 714 341M710 343Q708 347 711 352M710 343Q715 342 717 348M595 272Q599 276 604 275M595 272Q595 267 600 267M603 269Q609 274 616 274M603 269Q603 260 611 261M611 265Q618 272 626 272M611 265Q612 256 621 257M618 263Q626 272 636 273M618 263Q620 251 631 254M625 261Q634 273 648 275M625 261Q629 247 643 251M633 259Q639 270 651 273M633 259Q637 248 649 252M640 259Q646 270 659 274M640 259Q646 247 658 253M647 258Q652 271 665 276M647 258Q654 247 667 254M654 259Q658 273 671 279M654 259Q662 247 675 256M661 260Q664 276 679 285M661 260Q671 248 686 259M667 262Q669 277 683 287M667 262Q678 251 692 263M674 264Q675 277 686 287M674 264Q684 255 695 267M681 267Q680 279 690 288M681 267Q691 260 700 271M687 270Q686 280 694 288M687 270Q695 266 702 275M693 275Q691 284 699 292M693 275Q702 270 708 280M699 279Q698 284 702 289M699 279Q704 277 707 283M593 270Q598 271 600 269M593 270Q591 265 594 264M599 263Q606 265 610 263M599 263Q596 256 601 255M604 257Q615 261 622 257M604 257Q600 246 609 244M609 252Q622 257 631 253M609 252Q606 239 616 236M615 247Q626 253 635 250M615 247Q612 235 622 233M620 243Q632 250 642 247M620 243Q618 230 629 229M625 240Q638 248 650 246M625 240Q624 224 637 224M630 237Q641 245 651 244M630 237Q631 224 642 225M635 235Q647 246 660 246M635 235Q637 219 652 221M640 233Q650 245 663 246M640 233Q644 218 658 222M645 232Q652 243 665 246M645 232Q650 219 662 224M650 231Q655 244 668 249M650 231Q656 219 669 226M654 231Q658 244 670 249M654 231Q662 221 673 229M659 232Q660 241 669 247M659 232Q665 225 673 232M663 234Q664 242 671 248M663 234Q670 228 677 235M668 235Q667 241 672 245M668 235Q672 233 676 237M589 268Q595 266 595 263M589 268Q584 264 586 261M590 259Q598 257 599 253M590 259Q584 255 586 251M592 251Q601 249 602 244M592 251Q584 246 587 241M593 244Q606 240 608 233M593 244Q583 236 586 229M595 237Q610 233 612 224M595 237Q582 227 587 219M596 230Q609 227 611 220M596 230Q585 222 589 215M597 224Q614 221 616 212M597 224Q585 214 590 205M599 219Q615 215 617 207M599 219Q587 208 592 200M600 214Q614 211 616 204M600 214Q590 204 595 198M601 209Q615 207 618 200M601 209Q591 199 596 193M603 205Q616 204 619 197M603 205Q594 196 599 190M604 202Q617 201 620 195M604 202Q596 192 601 187M605 199Q620 199 624 192M605 199Q597 187 603 182M606 196Q617 197 621 192M606 196Q601 187 607 183M608 194Q616 196 621 193M608 194Q604 186 610 184M609 193Q614 195 617 193M609 193Q608 188 612 187M586 268Q590 265 588 263M586 268Q581 267 581 264M584 260Q590 255 588 251M584 260Q577 258 576 254M583 252Q590 246 588 241M583 252Q573 250 572 245M581 245Q589 238 586 233M581 245Q571 243 569 237M580 238Q590 230 586 223M580 238Q567 236 565 228M578 232Q589 222 585 215M578 232Q564 229 561 222M577 227Q588 216 583 209M577 227Q561 224 558 216M575 222Q586 211 580 204M575 222Q560 220 557 212M574 218Q584 206 578 199M574 218Q559 216 555 208M572 214Q582 203 576 196M572 214Q558 213 554 205M571 210Q579 200 572 195M571 210Q558 210 554 204M570 208Q578 195 569 190M570 208Q555 209 549 202M568 205Q573 195 566 192M568 205Q557 208 551 204M567 204Q569 194 562 193M567 204Q558 208 551 205M566 203Q565 194 557 195M566 203Q559 208 552 208M564 202Q562 197 556 200M564 202Q562 208 556 209M582 270Q584 264 581 263M582 270Q576 271 573 269M577 263Q580 255 574 253M577 263Q568 265 564 262M571 257Q575 247 568 245M571 257Q561 259 556 256M566 251Q570 240 561 237M566 251Q555 255 548 251M561 246Q565 231 553 228M561 246Q546 252 536 247M556 241Q558 228 548 227M556 241Q544 247 534 244M551 237Q553 222 540 220M551 237Q537 245 525 242M546 234Q547 220 535 220M546 234Q534 241 524 239M541 231Q541 214 526 215M541 231Q527 241 514 239M536 229Q534 212 519 214M536 229Q524 240 510 239M531 227Q528 212 515 216M531 227Q521 238 508 239M526 225Q522 212 509 216M526 225Q518 237 505 240M522 225Q517 214 506 219M522 225Q516 235 505 238M517 225Q512 215 502 221M517 225Q513 235 503 239M513 225Q507 218 499 224M513 225Q510 234 502 239M508 226Q504 221 499 226M508 226Q508 232 502 236M578 271Q579 263 572 263M578 271Q571 275 565 274M569 265Q569 256 560 256M569 265Q561 271 553 270M560 261Q559 247 547 248M560 261Q549 269 538 269M551 257Q549 244 537 246M551 257Q541 266 530 266M542 253Q539 236 522 240M542 253Q530 266 515 267M533 251Q528 232 509 237M533 251Q520 267 503 269M524 249Q519 232 502 238M524 249Q514 264 498 267M516 248Q508 231 491 239M516 248Q507 264 489 269M507 247Q497 229 477 239M507 247Q498 267 478 274M499 248Q488 231 469 243M499 248Q492 267 473 276M491 249Q480 235 464 247M491 249Q487 266 470 275M483 250Q470 237 453 251M483 250Q480 269 462 281M475 253Q463 242 450 255M475 253Q474 269 460 280M467 256Q455 247 443 260M467 256Q467 271 454 282M460 260Q450 253 441 265M460 260Q461 272 451 281M452 264Q446 261 441 268M452 264Q453 272 448 278M578 276Q576 271 570 273M578 276Q575 281 570 283M569 276Q565 269 557 273M569 276Q566 284 558 287M560 277Q554 268 545 274M560 277Q557 286 547 291M551 278Q543 268 531 277M551 278Q548 291 536 298M543 280Q532 269 519 281M543 280Q540 295 526 304M534 283Q522 272 509 285M534 283Q533 298 519 309M526 286Q513 277 501 290M526 286Q526 301 512 313M517 290Q506 283 495 296M517 290Q518 304 506 316M509 295Q495 287 484 303M509 295Q511 311 498 324M501 301Q486 294 474 311M501 301Q504 317 491 332M493 307Q481 302 473 316M493 307Q496 319 487 331M485 314Q473 310 466 324M485 314Q489 326 480 338M478 322Q467 319 461 331M478 322Q482 332 474 343M470 330Q461 328 456 339M470 330Q474 339 468 349M463 339Q455 338 452 346M463 339Q466 346 461 354M455 349Q450 348 447 355M455 349Q458 354 455 360M578 280Q574 276 569 280M578 280Q577 285 572 288M568 283Q561 277 553 285M568 283Q567 293 559 299M558 287Q550 280 541 290M558 287Q559 298 549 306M549 292Q537 283 525 297M549 292Q550 306 538 318M540 297Q529 291 519 303M540 297Q541 310 531 321M531 303Q517 296 506 312M531 303Q534 318 521 332M522 310Q508 304 498 320M522 310Q525 324 514 338M513 317Q496 311 484 331M513 317Q518 335 505 353M504 326Q490 321 481 338M504 326Q509 340 499 355M496 334Q478 330 468 350M496 334Q502 351 490 370M487 344Q474 341 467 357M487 344Q493 356 484 371M479 354Q464 352 457 369M479 354Q485 368 476 384M471 365Q458 364 452 379M471 365Q477 377 469 391M463 377Q452 376 448 389M463 377Q468 386 462 398M455 389Q447 389 443 399M455 389Q459 396 455 405M447 402Q441 402 439 410M447 402Q450 407 447 414" stroke="#04060E" stroke-width="2.7" fill="none"
    opacity="0.97" stroke-linecap="round"/><path d="M587 277Q663 299 721 407M587 277Q661 264 717 353M587 277Q654 237 706 285M587 277Q635 214 672 238M587 277Q600 198 610 192M587 277Q574 200 563 202M587 277Q540 213 504 227M587 277Q507 222 445 269M587 277Q509 267 448 359M587 277Q504 296 439 416" stroke="#04060E" stroke-width="5" fill="none"
    opacity="0.97" stroke-linecap="round"/><circle cx="567" cy="308" r="16.1" fill="#04060E" opacity="0.97"/>
        <circle cx="611" cy="316" r="14.3" fill="#04060E" opacity="0.97"/><path d="M647 775Q620 501 593 277"
      stroke="#57E9FF" stroke-width="3.4" fill="none" opacity=".28" stroke-linecap="round"/><rect width="620" height="760" fill="url(#vignette-real-event)"/><text x="38" y="642" font-family="Archivo, Helvetica Neue, Arial, sans-serif" font-size="79.8" font-weight="700"
      letter-spacing="-2.8" fill="#FFF5E8">ÉVÉNEMENT</text><text x="38" y="695" font-family="Archivo, Helvetica Neue, Arial, sans-serif" font-size="31.9" font-weight="500"
      letter-spacing="0.3" fill="#FFF5E8" opacity=".78">Expérience immersive</text><filter id="gr-real-event"><feTurbulence type="fractalNoise" baseFrequency=".9" numOctaves="2"/>
    <feColorMatrix type="saturate" values="0"/>
    <feComponentTransfer><feFuncA type="linear" slope=".045"/></feComponentTransfer></filter>
  <rect width="620" height="760" filter="url(#gr-real-event)" opacity=".6"/></svg>