<svg xmlns="http://www.w3.org/2000/svg" viewBox="0 0 1200 900" width="1200" height="900" role="img" aria-label="La carte des packs, un numéro et un prix par ligne" preserveAspectRatio="xMidYMid slice">
<defs>
    <radialGradient id="halo-et1" cx="50%" cy="28%" r="78%">
      <stop offset="0" stop-color="#D9B978" stop-opacity=".40"/>
      <stop offset="1" stop-color="#D9B978" stop-opacity="0"/>
    </radialGradient>
    <linearGradient id="fond-et1" x1="0" y1="0" x2="0" y2="1">
      <stop offset="0" stop-color="#120A18"/><stop offset="1" stop-color="#0A0710"/>
    </linearGradient>
    <filter id="grain-et1"><feTurbulence type="fractalNoise" baseFrequency=".9" numOctaves="2"/>
      <feColorMatrix type="saturate" values="0"/>
      <feComponentTransfer><feFuncA type="linear" slope=".055"/></feComponentTransfer>
    </filter>
  </defs>
<rect width="1200" height="900" fill="url(#fond-et1)"/>
<rect width="1200" height="900" fill="url(#halo-et1)" opacity=".5"/>
<line x1="600" y1="940" x2="-136.1" y2="751.0"
      stroke="#D9B978" stroke-width="1" opacity="0.07"/><line x1="600" y1="940" x2="-95.1" y2="632.7"
      stroke="#D9B978" stroke-width="1" opacity="0.07"/><line x1="600" y1="940" x2="-35.2" y2="522.7"
      stroke="#D9B978" stroke-width="1" opacity="0.07"/><line x1="600" y1="940" x2="41.9" y2="424.1"
      stroke="#D9B978" stroke-width="1" opacity="0.07"/><line x1="600" y1="940" x2="134.2" y2="339.5"
      stroke="#D9B978" stroke-width="1" opacity="0.07"/><line x1="600" y1="940" x2="239.1" y2="271.2"
      stroke="#D9B978" stroke-width="1" opacity="0.07"/><line x1="600" y1="940" x2="353.8" y2="221.0"
      stroke="#D9B978" stroke-width="1" opacity="0.07"/><line x1="600" y1="940" x2="475.2" y2="190.3"
      stroke="#D9B978" stroke-width="1" opacity="0.07"/><line x1="600" y1="940" x2="600.0" y2="180.0"
      stroke="#D9B978" stroke-width="1" opacity="0.07"/><line x1="600" y1="940" x2="724.8" y2="190.3"
      stroke="#D9B978" stroke-width="1" opacity="0.07"/><line x1="600" y1="940" x2="846.2" y2="221.0"
      stroke="#D9B978" stroke-width="1" opacity="0.07"/><line x1="600" y1="940" x2="960.9" y2="271.2"
      stroke="#D9B978" stroke-width="1" opacity="0.07"/><line x1="600" y1="940" x2="1065.8" y2="339.5"
      stroke="#D9B978" stroke-width="1" opacity="0.07"/><line x1="600" y1="940" x2="1158.1" y2="424.1"
      stroke="#D9B978" stroke-width="1" opacity="0.07"/><line x1="600" y1="940" x2="1235.2" y2="522.7"
      stroke="#D9B978" stroke-width="1" opacity="0.07"/><line x1="600" y1="940" x2="1295.1" y2="632.7"
      stroke="#D9B978" stroke-width="1" opacity="0.07"/><line x1="600" y1="940" x2="1336.1" y2="751.0"
      stroke="#D9B978" stroke-width="1" opacity="0.07"/>
<rect x="96" y="80" width="1008" height="740" fill="none" stroke="#D9B978" stroke-width="1.5" opacity=".38"/>
<text x="150" y="212" font-family="Archivo, Helvetica Neue, Arial, sans-serif" font-size="24" font-weight="600" letter-spacing="9" fill="#D9B978">LA CARTE</text>
<text x="150" y="312" font-family="Bodoni Moda, Didot, Georgia, serif" font-size="84" fill="#F4F1EA">Un numéro.</text>
<text x="178" y="392" font-family="Bodoni Moda, Didot, Georgia, serif" font-size="46" fill="#CFC7BC" opacity="0.62">01</text><text x="286" y="392" font-family="Bodoni Moda, Didot, Georgia, serif" font-size="52" fill="#CFC7BC" opacity="0.72">Essentiel</text><text x="1022" y="392" text-anchor="end" font-family="Bodoni Moda, Didot, Georgia, serif" font-size="52" fill="#CFC7BC" opacity="0.62">50 €</text><rect x="150" y="422" width="900" height="1" fill="#D9B978" opacity=".22"/><rect x="150" y="438" width="900" height="104" fill="#D9B978" opacity=".13"/><text x="178" y="510" font-family="Bodoni Moda, Didot, Georgia, serif" font-size="46" fill="#D9B978" opacity="1">02</text><text x="286" y="510" font-family="Bodoni Moda, Didot, Georgia, serif" font-size="52" fill="#F4F1EA" opacity="1">Signature</text><text x="1022" y="510" text-anchor="end" font-family="Bodoni Moda, Didot, Georgia, serif" font-size="52" fill="#D9B978" opacity="1">90 €</text><rect x="150" y="540" width="900" height="1" fill="#D9B978" opacity=".22"/><text x="178" y="628" font-family="Bodoni Moda, Didot, Georgia, serif" font-size="46" fill="#CFC7BC" opacity="0.62">03</text><text x="286" y="628" font-family="Bodoni Moda, Didot, Georgia, serif" font-size="52" fill="#CFC7BC" opacity="0.72">Atelier</text><text x="1022" y="628" text-anchor="end" font-family="Bodoni Moda, Didot, Georgia, serif" font-size="52" fill="#CFC7BC" opacity="0.62">150 €</text><rect x="150" y="658" width="900" height="1" fill="#D9B978" opacity=".22"/><text x="178" y="746" font-family="Bodoni Moda, Didot, Georgia, serif" font-size="46" fill="#CFC7BC" opacity="0.62">04</text><text x="286" y="746" font-family="Bodoni Moda, Didot, Georgia, serif" font-size="52" fill="#CFC7BC" opacity="0.72">Maison</text><text x="1022" y="746" text-anchor="end" font-family="Bodoni Moda, Didot, Georgia, serif" font-size="52" fill="#CFC7BC" opacity="0.62">250 €</text><rect x="150" y="776" width="900" height="1" fill="#D9B978" opacity=".22"/>
<rect x="150" y="838" width="340" height="1.5" fill="#D9B978" opacity="0.45"/><rect x="150" y="852" width="340" height="1.5" fill="#D9B978" opacity="0.45"/><rect x="150" y="866" width="340" height="1.5" fill="#D9B978" opacity="0.45"/>
<text x="1050" y="866" text-anchor="end" font-family="Archivo, Helvetica Neue, Arial, sans-serif" font-size="26" fill="#CFC7BC" opacity=".72">Prix affiché · rien à négocier</text>
<rect width="1200" height="900" filter="url(#grain-et1)" opacity=".55"/>
</svg>